<svg xmlns="http://www.w3.org/2000/svg" version="1.1" xmlns:xlink="http://www.w3.org/1999/xlink" xmlns:svgjs="http://svgjs.com/svgjs" width="2080" height="1440" preserveAspectRatio="none" viewBox="0 0 2080 1440"><g mask="url(&quot;#SvgjsMask1025&quot;)" fill="none"><rect width="2080" height="1440" x="0" y="0" fill="rgba(153, 203, 255, 1)"></rect><path d="M304.315,1460.925C435.532,1463.865,560.691,1402.157,629.811,1290.582C702.8,1172.762,715.864,1025.028,649.844,903.166C580.731,775.594,449.388,687.48,304.315,689.768C162.679,692.002,41.848,787.753,-22.836,913.776C-82.169,1029.373,-63.542,1165.02,3.138,1276.541C67.883,1384.824,178.184,1458.099,304.315,1460.925" fill="rgba(28, 83, 142, 0.4)" class="triangle-float2"></path><path d="M123.75321584268939 37.992510052238245L-92.32054668336647 76.09214420877555 72.86578581446744 381.1529709195907z" fill="rgba(28, 83, 142, 0.4)" class="triangle-float2"></path><path d="M1374.37125290242 1266.541548856514L1100.080092986646 972.4002915264613 805.938835656593 1246.6914514422356 1080.2299955723674 1540.8327087722882z" fill="rgba(28, 83, 142, 0.4)" class="triangle-float2"></path><path d="M1624.9526507585567 715.736619595076L1820.2543485736958 426.1899453300808 1530.7076743087005 230.88824751494167 1335.4059764935614 520.434921779937z" fill="rgba(28, 83, 142, 0.4)" class="triangle-float1"></path><path d="M768.8887619536928 247.38347721688547L680.5062520112683-25.514586056676848 509.4918163721226 157.875943685273z" fill="rgba(28, 83, 142, 0.4)" class="triangle-float1"></path><path d="M961.1222890513797 532.7578811559401L577.7651372269529 400.75742803071154 445.76468410172436 784.1145798551383 829.1218359261511 916.1150329803669z" fill="rgba(28, 83, 142, 0.4)" class="triangle-float2"></path><path d="M1061.383,680.785C1162.1,680.112,1265.703,655.583,1321.297,571.597C1382.615,478.964,1391.422,359.189,1339.147,261.168C1283.78,157.349,1178.79,76.517,1061.383,84.228C952.768,91.362,892.218,198.227,840.359,293.928C791.89,383.374,744.914,486.777,795.382,575.111C846.109,663.899,959.128,681.468,1061.383,680.785" fill="rgba(28, 83, 142, 0.4)" class="triangle-float2"></path><path d="M1451.2881391212302 931.8381117224048L1322.1586668683142 576.0030188399245 1105.0660605277512 825.7394946153755z" fill="rgba(28, 83, 142, 0.4)" class="triangle-float3"></path></g><defs><mask id="SvgjsMask1025"><rect width="2080" height="1440" fill="#ffffff"></rect></mask><style>
            @keyframes float1 {
                0%{transform: translate(0, 0)}
                50%{transform: translate(-10px, 0)}
                100%{transform: translate(0, 0)}
            }

            .triangle-float1 {
                animation: float1 5s infinite;
            }

            @keyframes float2 {
                0%{transform: translate(0, 0)}
                50%{transform: translate(-5px, -5px)}
                100%{transform: translate(0, 0)}
            }

            .triangle-float2 {
                animation: float2 4s infinite;
            }

            @keyframes float3 {
                0%{transform: translate(0, 0)}
                50%{transform: translate(0, -10px)}
                100%{transform: translate(0, 0)}
            }

            .triangle-float3 {
                animation: float3 6s infinite;
            }
        </style></defs></svg>