<svg xmlns="http://www.w3.org/2000/svg" version="1.1" xmlns:xlink="http://www.w3.org/1999/xlink" xmlns:svgjs="http://svgjs.com/svgjs" width="1440" height="560" preserveAspectRatio="none" viewBox="0 0 1440 560"><g mask="url(&quot;#SvgjsMask1000&quot;)" fill="none"><rect width="1440" height="560" x="0" y="0" fill="#0e2a47"></rect><path d="M420 91C402.13 91 397.34 112.93 383.7 140C349.74 207.43 314.28 223.38 324.8 280C332.43 321.05 375.14 335.35 420 335.35C454.05 335.35 476.24 316.07 482.63 280C493.54 218.39 476.64 206.55 454.59 140C445.33 112.05 437.58 91 420 91" stroke="rgba(51, 121, 194, 0.58)" stroke-width="2"></path><path d="M700 102.5C684.3 102.5 674.92 118.15 673.42 140C668.83 206.9 676.23 211.7 687.83 280C689.52 289.94 690.53 293.33 700 296.47C766.62 318.57 769.18 325.54 840 330.49C909.18 335.33 912.57 332.11 980 316.06C1018.63 306.86 1052.12 298.49 1052.12 280C1052.12 261.26 1018.87 252.06 980 241.61C912.81 223.54 902.1 249.77 840 222.96C784.44 198.97 792.57 181.21 744.68 140C722.57 120.98 719.93 102.5 700 102.5" stroke="rgba(51, 121, 194, 0.58)" stroke-width="2"></path><path d="M280 326.67C261.02 326.67 253.33 376.79 253.33 420C253.33 436.79 264.5 446.67 280 446.67C304.5 446.67 333.33 441.41 333.33 420C333.33 381.41 301.02 326.67 280 326.67" stroke="rgba(51, 121, 194, 0.58)" stroke-width="2"></path><path d="M1260 372C1249.69 372 1240.47 397.6 1240.47 420C1240.47 432.95 1249.88 442.7 1260 442.7C1270.7 442.7 1282.11 433.25 1282.11 420C1282.11 397.9 1270.51 372 1260 372" stroke="rgba(51, 121, 194, 0.58)" stroke-width="2"></path><path d="M40 140C57.39 72.37 26.65 44.35 58.33 0C76.65 -25.65 99.16 0 140 0C173.41 0 177.34 -11.69 206.82 0C247.34 16.07 248.64 22.67 280 55.52C315.47 92.67 340.49 96.99 340.49 140C340.49 186.35 324.45 210.56 280 234.23C224.2 263.95 208 232.53 140 246.78C98.8 255.41 61.6 263.14 61.6 280C61.6 296.95 109.88 286.29 140 314.39C184.91 356.29 171.83 370.5 211.67 420C241.83 457.47 241.17 460.27 280 488.33C338.05 530.27 405.42 540.82 405.42 560C405.42 576.65 342.71 560 280 560C210 560 210 560 140 560C70 560 35 595 0 560C-35 525 0 490 0 420C0 350 0 350 0 280C0 253.45 -7.14 251.89 0 226.9C12.86 181.89 28.22 185.82 40 140" stroke="rgba(51, 121, 194, 0.58)" stroke-width="2"></path><path d="M420 32.67C395.69 32.67 367.03 8.82 367.03 0C367.03 -7.51 393.51 0 420 0C435.32 0 450.63 -6.63 450.63 0C450.63 9.7 437.49 32.67 420 32.67" stroke="rgba(51, 121, 194, 0.58)" stroke-width="2"></path><path d="M495.76 140C495.76 103.81 527.32 78.65 560 78.65C594 78.65 629.11 103.28 629.11 140C629.11 197.44 593.6 266.98 560 266.98C526.93 266.98 495.76 197.98 495.76 140" stroke="rgba(51, 121, 194, 0.58)" stroke-width="2"></path><path d="M700 40C680.7 22.35 666.06 12.14 666.06 0C666.06 -7.86 683.03 0 700 0C770 0 770 0 840 0C869.24 0 876.43 -15.37 898.48 0C946.43 33.42 928.5 65.03 980 97.58C1039.26 135.03 1120 118.17 1120 140C1120 161.96 1051.09 180.55 980 185.16C911.09 189.63 907.36 177.06 840 158.15C826.94 154.48 829.71 148.91 819.15 140C759.71 89.84 757.24 92.35 700 40" stroke="rgba(51, 121, 194, 0.58)" stroke-width="2"></path><path d="M1260 63.95C1203.63 63.95 1142.27 17.02 1142.27 0C1142.27 -14.96 1201.14 0 1260 0C1301.78 0 1343.55 -14.15 1343.55 0C1343.55 17.82 1304.27 63.95 1260 63.95" stroke="rgba(51, 121, 194, 0.58)" stroke-width="2"></path><path d="M1540 23.33C1531.8 23.33 1512.9 6.64 1512.9 0C1512.9 -5.03 1532.72 -6.27 1540 0C1546.27 5.4 1545.35 23.33 1540 23.33" stroke="rgba(51, 121, 194, 0.58)" stroke-width="2"></path><path d="M416.67 420C416.67 417.81 418.21 418.23 420 416.74C489.87 358.6 495.7 299.86 560 300.74C614.49 301.49 657.58 370.96 657.58 420C657.58 454.62 611.49 463 560 468.06C492.7 474.67 481.47 463.94 420 443.33C409.81 439.91 416.67 431.1 416.67 420" stroke="rgba(51, 121, 194, 0.58)" stroke-width="2"></path><path d="M758.33 420C758.33 397.06 797.53 397.62 840 387.87C908.36 372.17 913.33 389.6 980 369.09C1053.33 346.53 1062.72 288.45 1120 301.72C1172.6 313.91 1157.28 362.85 1199.77 420C1227.28 456.99 1228.81 490 1260 490C1293 490 1292.83 453.69 1328.16 420C1362.83 386.94 1357.42 374.74 1400 356.51C1463.34 329.39 1497.21 309.9 1540 329.3C1567.21 341.64 1540 374.65 1540 420C1540 455 1554.84 461.29 1540 490C1518.66 531.29 1509.51 539.07 1467.64 560C1439.51 574.07 1433.82 560 1400 560C1330 560 1330 560 1260 560C1190 560 1190 560 1120 560C1050 560 1050 560 980 560C928.49 560 916.56 579.79 876.98 560C846.56 544.79 865.15 519.68 840 490C805.83 449.68 758.33 448.12 758.33 420" stroke="rgba(51, 121, 194, 0.58)" stroke-width="2"></path><path d="M95.56 140C95.56 86.04 100.66 28.48 140 23.33C192.88 16.41 213.18 66.29 280 115.86C291.82 124.63 297.28 127.71 297.28 140C297.28 153.24 294.5 162.54 280 166.92C215.86 186.27 203.19 196.68 140 187.46C110.97 183.22 95.56 168.1 95.56 140" stroke="rgba(51, 121, 194, 0.58)" stroke-width="2"></path><path d="M536.94 140C536.94 127.01 548.27 117.98 560 117.98C572.2 117.98 584.81 126.82 584.81 140C584.81 160.62 572.06 185.58 560 185.58C548.13 185.58 536.94 160.81 536.94 140" stroke="rgba(51, 121, 194, 0.58)" stroke-width="2"></path><path d="M840 43.08C814.6 43.08 774.12 11.73 774.12 0C774.12 -9.81 807.06 0 840 0C847.09 0 854.18 -5.13 854.18 0C854.18 16.41 854.63 43.08 840 43.08" stroke="rgba(51, 121, 194, 0.58)" stroke-width="2"></path><path d="M1260 20.74C1241.72 20.74 1221.82 5.52 1221.82 0C1221.82 -4.85 1240.91 0 1260 0C1273.55 0 1287.1 -4.59 1287.1 0C1287.1 5.78 1274.36 20.74 1260 20.74" stroke="rgba(51, 121, 194, 0.58)" stroke-width="2"></path><path d="M35 420C49.83 379.47 94.05 375.79 140 375.79C161.55 375.79 152.1 400.29 170 420C222.1 477.39 221.49 479.59 280 530C302.74 549.59 332.5 551.97 332.5 560C332.5 566.97 306.25 560 280 560C210 560 210 560 140 560C106.3 560 89.25 582.22 72.59 560C36.75 512.22 16.13 471.57 35 420" stroke="rgba(51, 121, 194, 0.58)" stroke-width="2"></path><path d="M985.6 420C1050.76 388.7 1061.29 362.07 1120 362.07C1148.03 362.07 1159.07 388.81 1159.07 420C1159.07 468.68 1149.11 478.4 1120 521.82C1102.18 548.4 1095.97 551.61 1065.22 560C1025.97 570.7 1022.61 560 980 560C961.51 560 943.02 573.98 943.02 560C943.02 508.65 960.29 494.14 980 429.33C981.58 424.14 980.76 422.33 985.6 420" stroke="rgba(51, 121, 194, 0.58)" stroke-width="2"></path><path d="M1374.21 420C1386.37 407.83 1383.76 401.27 1400 397.21C1466.65 380.56 1485.87 369.78 1540 378.59C1555.87 381.17 1540 399.29 1540 420C1540 435.98 1549.53 440.02 1540 451.96C1493.68 510.02 1487.52 514.3 1428.31 560C1417.52 568.32 1414.15 560 1400 560C1330 560 1330 560 1260 560C1220 560 1180 565.57 1180 560C1180 554.22 1227.29 560.88 1260 537.3C1324.4 490.88 1316.37 477.88 1374.21 420" stroke="rgba(51, 121, 194, 0.58)" stroke-width="2"></path></g><defs><mask id="SvgjsMask1000"><rect width="1440" height="560" fill="#ffffff"></rect></mask></defs></svg>