<svg xmlns="http://www.w3.org/2000/svg" version="1.1" xmlns:xlink="http://www.w3.org/1999/xlink" xmlns:svgjs="http://svgjs.com/svgjs" width="3000" height="2000" preserveAspectRatio="none" viewBox="0 0 3000 2000"><g mask="url(&quot;#SvgjsMask1015&quot;)" fill="none"><rect width="3000" height="2000" x="0" y="0" fill="#0e2a47"></rect><path d="M290.23 2068.37C650.48 1921.44 684.52 842.85 1206.3 810.3 1728.07 777.75 1664.33 1060.3 2122.36 1060.3 2580.4 1060.3 2801.05 812.53 3038.43 810.3" stroke="rgba(51,121,194,0.58)" stroke-width="2"></path><path d="M733.87 2127.81C1202.92 2028.06 1283.57 896.2 2123.51 805.62 2963.44 715.04 3134.94 218.25 3513.14 205.62" stroke="rgba(51,121,194,0.58)" stroke-width="2"></path><path d="M1083.13 2390.1C1436.6 2338.74 1494.94 1608.55 2203.74 1503.83 2912.55 1399.11 2969.03 657.2 3324.36 603.83" stroke="rgba(51,121,194,0.58)" stroke-width="2"></path><path d="M208.82 2216.24C761.16 1991.88 820.98 334.97 1614.88 290.21 2408.77 245.45 2652.64 725.11 3020.93 730.21" stroke="rgba(51,121,194,0.58)" stroke-width="2"></path><path d="M313.5 2322.15C815.18 2166.38 951.82 743 1680.99 726.79 2410.15 710.58 2677.31 1294.97 3048.47 1306.79" stroke="rgba(51,121,194,0.58)" stroke-width="2"></path></g><defs><mask id="SvgjsMask1015"><rect width="3000" height="2000" fill="#ffffff"></rect></mask></defs></svg>