<svg xmlns="http://www.w3.org/2000/svg" version="1.1" xmlns:xlink="http://www.w3.org/1999/xlink" xmlns:svgjs="http://svgjs.com/svgjs" width="1440" height="560" preserveAspectRatio="none" viewBox="0 0 1440 560"><g mask="url(&quot;#SvgjsMask1000&quot;)" fill="none"><rect width="1440" height="560" x="0" y="0" fill="#0e2a47"></rect><path d="M102.09 567.22C310.19 540.42 433.02 65.23 774.06 64.36 1115.1 63.49 1265.16 328.24 1446.03 333.16" stroke="rgba(51,121,194,0.58)" stroke-width="2"></path><path d="M297.19 669.2C426.09 652.93 497.5 361.98 714.63 359.63 931.76 357.28 923.34 429.63 1132.06 429.63 1340.78 429.63 1443.68 359.87 1549.5 359.63" stroke="rgba(51,121,194,0.58)" stroke-width="2"></path><path d="M780.06 630.63C905.85 570.48 851.4 165.67 1086.35 164.56 1321.3 163.45 1531.79 427.53 1698.93 433.36" stroke="rgba(51,121,194,0.58)" stroke-width="2"></path><path d="M333.07 648.34C464.88 636.29 549.12 363.2 778.16 361.65 1007.2 360.1 1000.71 431.65 1223.26 431.65 1445.8 431.65 1555.71 361.86 1668.35 361.65" stroke="rgba(51,121,194,0.58)" stroke-width="2"></path><path d="M785.3 581.2C883.44 556.59 819.39 310.34 1066.26 289.89 1313.13 269.44 1476.49 64.66 1628.18 60.29" stroke="rgba(51,121,194,0.58)" stroke-width="2"></path></g><defs><mask id="SvgjsMask1000"><rect width="1440" height="560" fill="#ffffff"></rect></mask></defs></svg>