<svg xmlns="http://www.w3.org/2000/svg" version="1.1" xmlns:xlink="http://www.w3.org/1999/xlink" xmlns:svgjs="http://svgjs.com/svgjs" width="1600" height="1020" preserveAspectRatio="none" viewBox="0 0 1600 1020"><g mask="url(&quot;#SvgjsMask1002&quot;)" fill="none"><rect width="1600" height="1020" x="0" y="0" fill="rgba(225, 233, 241, 1)"></rect><path d="M82.4 48.06L147.36 85.56L147.36 160.56L82.4 198.06L17.45 160.56L17.45 85.56zM17.45 160.56L82.4 198.06L82.4 273.06L17.45 310.56L-47.5 273.06L-47.5 198.06zM17.45 610.56L82.4 648.06L82.4 723.06L17.45 760.56L-47.5 723.06L-47.5 648.06zM82.4 723.06L147.36 760.56L147.36 835.56L82.4 873.06L17.45 835.56L17.45 760.56zM82.4 948.06L147.36 985.56L147.36 1060.56L82.4 1098.06L17.45 1060.56L17.45 985.56zM212.31 273.06L277.26 310.56L277.26 385.56L212.31 423.06L147.36 385.56L147.36 310.56zM212.31 498.06L277.26 535.56L277.26 610.56L212.31 648.06L147.36 610.56L147.36 535.56zM212.31 723.06L277.26 760.56L277.26 835.56L212.31 873.06L147.36 835.56L147.36 760.56zM212.31 948.06L277.26 985.56L277.26 1060.56L212.31 1098.06L147.36 1060.56L147.36 985.56zM277.26 160.56L342.22 198.06L342.22 273.06L277.26 310.56L212.31 273.06L212.31 198.06zM342.22 498.06L407.17 535.56L407.17 610.56L342.22 648.06L277.26 610.56L277.26 535.56zM342.22 723.06L407.17 760.56L407.17 835.56L342.22 873.06L277.26 835.56L277.26 760.56zM342.22 948.06L407.17 985.56L407.17 1060.56L342.22 1098.06L277.26 1060.56L277.26 985.56zM407.17 -64.44L472.13 -26.94L472.13 48.06L407.17 85.56L342.22 48.06L342.22 -26.94zM472.13 273.06L537.08 310.56L537.08 385.56L472.13 423.06L407.17 385.56L407.17 310.56zM407.17 385.56L472.13 423.06L472.13 498.06L407.17 535.56L342.22 498.06L342.22 423.06zM602.03 48.06L666.99 85.56L666.99 160.56L602.03 198.06L537.08 160.56L537.08 85.56zM537.08 160.56L602.03 198.06L602.03 273.06L537.08 310.56L472.13 273.06L472.13 198.06zM537.08 835.56L602.03 873.06L602.03 948.06L537.08 985.56L472.13 948.06L472.13 873.06zM666.99 -64.44L731.94 -26.94L731.94 48.06L666.99 85.56L602.03 48.06L602.03 -26.94zM731.94 48.06L796.9 85.56L796.9 160.56L731.94 198.06L666.99 160.56L666.99 85.56zM666.99 160.56L731.94 198.06L731.94 273.06L666.99 310.56L602.03 273.06L602.03 198.06zM731.94 273.06L796.9 310.56L796.9 385.56L731.94 423.06L666.99 385.56L666.99 310.56zM731.94 498.06L796.9 535.56L796.9 610.56L731.94 648.06L666.99 610.56L666.99 535.56zM731.94 948.06L796.9 985.56L796.9 1060.56L731.94 1098.06L666.99 1060.56L666.99 985.56zM796.89 160.56L861.85 198.06L861.85 273.06L796.89 310.56L731.94 273.06L731.94 198.06zM861.85 498.06L926.8 535.56L926.8 610.56L861.85 648.06L796.89 610.56L796.89 535.56zM796.89 610.56L861.85 648.06L861.85 723.06L796.89 760.56L731.94 723.06L731.94 648.06zM796.89 835.56L861.85 873.06L861.85 948.06L796.89 985.56L731.94 948.06L731.94 873.06zM861.85 948.06L926.8 985.56L926.8 1060.56L861.85 1098.06L796.89 1060.56L796.89 985.56zM991.76 723.06L1056.71 760.56L1056.71 835.56L991.76 873.06L926.8 835.56L926.8 760.56zM991.76 948.06L1056.71 985.56L1056.71 1060.56L991.76 1098.06L926.8 1060.56L926.8 985.56zM1056.71 -64.44L1121.66 -26.94L1121.66 48.06L1056.71 85.56L991.76 48.06L991.76 -26.94zM1121.66 48.06L1186.62 85.56L1186.62 160.56L1121.66 198.06L1056.71 160.56L1056.71 85.56zM1056.71 160.56L1121.66 198.06L1121.66 273.06L1056.71 310.56L991.76 273.06L991.76 198.06zM1056.71 610.56L1121.66 648.06L1121.66 723.06L1056.71 760.56L991.76 723.06L991.76 648.06zM1121.66 723.06L1186.62 760.56L1186.62 835.56L1121.66 873.06L1056.71 835.56L1056.71 760.56zM1186.62 -64.44L1251.57 -26.94L1251.57 48.06L1186.62 85.56L1121.66 48.06L1121.66 -26.94zM1251.57 48.06L1316.52 85.56L1316.52 160.56L1251.57 198.06L1186.62 160.56L1186.62 85.56zM1251.57 273.06L1316.52 310.56L1316.52 385.56L1251.57 423.06L1186.62 385.56L1186.62 310.56zM1251.57 498.06L1316.52 535.56L1316.52 610.56L1251.57 648.06L1186.62 610.56L1186.62 535.56zM1251.57 723.06L1316.52 760.56L1316.52 835.56L1251.57 873.06L1186.62 835.56L1186.62 760.56zM1186.62 835.56L1251.57 873.06L1251.57 948.06L1186.62 985.56L1121.66 948.06L1121.66 873.06zM1251.57 948.06L1316.52 985.56L1316.52 1060.56L1251.57 1098.06L1186.62 1060.56L1186.62 985.56zM1316.53 -64.44L1381.48 -26.94L1381.48 48.06L1316.53 85.56L1251.57 48.06L1251.57 -26.94zM1381.48 48.06L1446.43 85.56L1446.43 160.56L1381.48 198.06L1316.53 160.56L1316.53 85.56zM1316.53 385.56L1381.48 423.06L1381.48 498.06L1316.53 535.56L1251.57 498.06L1251.57 423.06zM1381.48 498.06L1446.43 535.56L1446.43 610.56L1381.48 648.06L1316.53 610.56L1316.53 535.56zM1316.53 610.56L1381.48 648.06L1381.48 723.06L1316.53 760.56L1251.57 723.06L1251.57 648.06zM1381.48 723.06L1446.43 760.56L1446.43 835.56L1381.48 873.06L1316.53 835.56L1316.53 760.56zM1316.53 835.56L1381.48 873.06L1381.48 948.06L1316.53 985.56L1251.57 948.06L1251.57 873.06zM1511.39 48.06L1576.34 85.56L1576.34 160.56L1511.39 198.06L1446.43 160.56L1446.43 85.56zM1446.43 385.56L1511.39 423.06L1511.39 498.06L1446.43 535.56L1381.48 498.06L1381.48 423.06zM1511.39 723.06L1576.34 760.56L1576.34 835.56L1511.39 873.06L1446.43 835.56L1446.43 760.56zM1446.43 835.56L1511.39 873.06L1511.39 948.06L1446.43 985.56L1381.48 948.06L1381.48 873.06zM1576.34 -64.44L1641.29 -26.94L1641.29 48.06L1576.34 85.56L1511.39 48.06L1511.39 -26.94zM1641.29 498.06L1706.25 535.56L1706.25 610.56L1641.29 648.06L1576.34 610.56L1576.34 535.56zM1641.29 948.06L1706.25 985.56L1706.25 1060.56L1641.29 1098.06L1576.34 1060.56L1576.34 985.56z" stroke="#03305d" stroke-width="2"></path><path d="M74.9 48.06 a7.5 7.5 0 1 0 15 0 a7.5 7.5 0 1 0 -15 0zM139.86 85.56 a7.5 7.5 0 1 0 15 0 a7.5 7.5 0 1 0 -15 0zM139.86 160.56 a7.5 7.5 0 1 0 15 0 a7.5 7.5 0 1 0 -15 0zM74.9 198.06 a7.5 7.5 0 1 0 15 0 a7.5 7.5 0 1 0 -15 0zM9.95 160.56 a7.5 7.5 0 1 0 15 0 a7.5 7.5 0 1 0 -15 0zM9.95 85.56 a7.5 7.5 0 1 0 15 0 a7.5 7.5 0 1 0 -15 0zM74.9 273.06 a7.5 7.5 0 1 0 15 0 a7.5 7.5 0 1 0 -15 0zM9.95 310.56 a7.5 7.5 0 1 0 15 0 a7.5 7.5 0 1 0 -15 0zM-55 273.06 a7.5 7.5 0 1 0 15 0 a7.5 7.5 0 1 0 -15 0zM-55 198.06 a7.5 7.5 0 1 0 15 0 a7.5 7.5 0 1 0 -15 0zM9.95 610.56 a7.5 7.5 0 1 0 15 0 a7.5 7.5 0 1 0 -15 0zM74.9 648.06 a7.5 7.5 0 1 0 15 0 a7.5 7.5 0 1 0 -15 0zM74.9 723.06 a7.5 7.5 0 1 0 15 0 a7.5 7.5 0 1 0 -15 0zM9.95 760.56 a7.5 7.5 0 1 0 15 0 a7.5 7.5 0 1 0 -15 0zM-55 723.06 a7.5 7.5 0 1 0 15 0 a7.5 7.5 0 1 0 -15 0zM-55 648.06 a7.5 7.5 0 1 0 15 0 a7.5 7.5 0 1 0 -15 0zM139.86 760.56 a7.5 7.5 0 1 0 15 0 a7.5 7.5 0 1 0 -15 0zM139.86 835.56 a7.5 7.5 0 1 0 15 0 a7.5 7.5 0 1 0 -15 0zM74.9 873.06 a7.5 7.5 0 1 0 15 0 a7.5 7.5 0 1 0 -15 0zM9.95 835.56 a7.5 7.5 0 1 0 15 0 a7.5 7.5 0 1 0 -15 0zM74.9 948.06 a7.5 7.5 0 1 0 15 0 a7.5 7.5 0 1 0 -15 0zM139.86 985.56 a7.5 7.5 0 1 0 15 0 a7.5 7.5 0 1 0 -15 0zM139.86 1060.56 a7.5 7.5 0 1 0 15 0 a7.5 7.5 0 1 0 -15 0zM74.9 1098.06 a7.5 7.5 0 1 0 15 0 a7.5 7.5 0 1 0 -15 0zM9.95 1060.56 a7.5 7.5 0 1 0 15 0 a7.5 7.5 0 1 0 -15 0zM9.95 985.56 a7.5 7.5 0 1 0 15 0 a7.5 7.5 0 1 0 -15 0zM204.81 273.06 a7.5 7.5 0 1 0 15 0 a7.5 7.5 0 1 0 -15 0zM269.76 310.56 a7.5 7.5 0 1 0 15 0 a7.5 7.5 0 1 0 -15 0zM269.76 385.56 a7.5 7.5 0 1 0 15 0 a7.5 7.5 0 1 0 -15 0zM204.81 423.06 a7.5 7.5 0 1 0 15 0 a7.5 7.5 0 1 0 -15 0zM139.86 385.56 a7.5 7.5 0 1 0 15 0 a7.5 7.5 0 1 0 -15 0zM139.86 310.56 a7.5 7.5 0 1 0 15 0 a7.5 7.5 0 1 0 -15 0zM204.81 498.06 a7.5 7.5 0 1 0 15 0 a7.5 7.5 0 1 0 -15 0zM269.76 535.56 a7.5 7.5 0 1 0 15 0 a7.5 7.5 0 1 0 -15 0zM269.76 610.56 a7.5 7.5 0 1 0 15 0 a7.5 7.5 0 1 0 -15 0zM204.81 648.06 a7.5 7.5 0 1 0 15 0 a7.5 7.5 0 1 0 -15 0zM139.86 610.56 a7.5 7.5 0 1 0 15 0 a7.5 7.5 0 1 0 -15 0zM139.86 535.56 a7.5 7.5 0 1 0 15 0 a7.5 7.5 0 1 0 -15 0zM204.81 723.06 a7.5 7.5 0 1 0 15 0 a7.5 7.5 0 1 0 -15 0zM269.76 760.56 a7.5 7.5 0 1 0 15 0 a7.5 7.5 0 1 0 -15 0zM269.76 835.56 a7.5 7.5 0 1 0 15 0 a7.5 7.5 0 1 0 -15 0zM204.81 873.06 a7.5 7.5 0 1 0 15 0 a7.5 7.5 0 1 0 -15 0zM204.81 948.06 a7.5 7.5 0 1 0 15 0 a7.5 7.5 0 1 0 -15 0zM269.76 985.56 a7.5 7.5 0 1 0 15 0 a7.5 7.5 0 1 0 -15 0zM269.76 1060.56 a7.5 7.5 0 1 0 15 0 a7.5 7.5 0 1 0 -15 0zM204.81 1098.06 a7.5 7.5 0 1 0 15 0 a7.5 7.5 0 1 0 -15 0zM269.76 160.56 a7.5 7.5 0 1 0 15 0 a7.5 7.5 0 1 0 -15 0zM334.72 198.06 a7.5 7.5 0 1 0 15 0 a7.5 7.5 0 1 0 -15 0zM334.72 273.06 a7.5 7.5 0 1 0 15 0 a7.5 7.5 0 1 0 -15 0zM204.81 198.06 a7.5 7.5 0 1 0 15 0 a7.5 7.5 0 1 0 -15 0zM334.72 498.06 a7.5 7.5 0 1 0 15 0 a7.5 7.5 0 1 0 -15 0zM399.67 535.56 a7.5 7.5 0 1 0 15 0 a7.5 7.5 0 1 0 -15 0zM399.67 610.56 a7.5 7.5 0 1 0 15 0 a7.5 7.5 0 1 0 -15 0zM334.72 648.06 a7.5 7.5 0 1 0 15 0 a7.5 7.5 0 1 0 -15 0zM334.72 723.06 a7.5 7.5 0 1 0 15 0 a7.5 7.5 0 1 0 -15 0zM399.67 760.56 a7.5 7.5 0 1 0 15 0 a7.5 7.5 0 1 0 -15 0zM399.67 835.56 a7.5 7.5 0 1 0 15 0 a7.5 7.5 0 1 0 -15 0zM334.72 873.06 a7.5 7.5 0 1 0 15 0 a7.5 7.5 0 1 0 -15 0zM334.72 948.06 a7.5 7.5 0 1 0 15 0 a7.5 7.5 0 1 0 -15 0zM399.67 985.56 a7.5 7.5 0 1 0 15 0 a7.5 7.5 0 1 0 -15 0zM399.67 1060.56 a7.5 7.5 0 1 0 15 0 a7.5 7.5 0 1 0 -15 0zM334.72 1098.06 a7.5 7.5 0 1 0 15 0 a7.5 7.5 0 1 0 -15 0zM399.67 -64.44 a7.5 7.5 0 1 0 15 0 a7.5 7.5 0 1 0 -15 0zM464.63 -26.94 a7.5 7.5 0 1 0 15 0 a7.5 7.5 0 1 0 -15 0zM464.63 48.06 a7.5 7.5 0 1 0 15 0 a7.5 7.5 0 1 0 -15 0zM399.67 85.56 a7.5 7.5 0 1 0 15 0 a7.5 7.5 0 1 0 -15 0zM334.72 48.06 a7.5 7.5 0 1 0 15 0 a7.5 7.5 0 1 0 -15 0zM334.72 -26.94 a7.5 7.5 0 1 0 15 0 a7.5 7.5 0 1 0 -15 0zM464.63 273.06 a7.5 7.5 0 1 0 15 0 a7.5 7.5 0 1 0 -15 0zM529.58 310.56 a7.5 7.5 0 1 0 15 0 a7.5 7.5 0 1 0 -15 0zM529.58 385.56 a7.5 7.5 0 1 0 15 0 a7.5 7.5 0 1 0 -15 0zM464.63 423.06 a7.5 7.5 0 1 0 15 0 a7.5 7.5 0 1 0 -15 0zM399.67 385.56 a7.5 7.5 0 1 0 15 0 a7.5 7.5 0 1 0 -15 0zM399.67 310.56 a7.5 7.5 0 1 0 15 0 a7.5 7.5 0 1 0 -15 0zM464.63 498.06 a7.5 7.5 0 1 0 15 0 a7.5 7.5 0 1 0 -15 0zM334.72 423.06 a7.5 7.5 0 1 0 15 0 a7.5 7.5 0 1 0 -15 0zM594.53 48.06 a7.5 7.5 0 1 0 15 0 a7.5 7.5 0 1 0 -15 0zM659.49 85.56 a7.5 7.5 0 1 0 15 0 a7.5 7.5 0 1 0 -15 0zM659.49 160.56 a7.5 7.5 0 1 0 15 0 a7.5 7.5 0 1 0 -15 0zM594.53 198.06 a7.5 7.5 0 1 0 15 0 a7.5 7.5 0 1 0 -15 0zM529.58 160.56 a7.5 7.5 0 1 0 15 0 a7.5 7.5 0 1 0 -15 0zM529.58 85.56 a7.5 7.5 0 1 0 15 0 a7.5 7.5 0 1 0 -15 0zM594.53 273.06 a7.5 7.5 0 1 0 15 0 a7.5 7.5 0 1 0 -15 0zM464.63 198.06 a7.5 7.5 0 1 0 15 0 a7.5 7.5 0 1 0 -15 0zM529.58 835.56 a7.5 7.5 0 1 0 15 0 a7.5 7.5 0 1 0 -15 0zM594.53 873.06 a7.5 7.5 0 1 0 15 0 a7.5 7.5 0 1 0 -15 0zM594.53 948.06 a7.5 7.5 0 1 0 15 0 a7.5 7.5 0 1 0 -15 0zM529.58 985.56 a7.5 7.5 0 1 0 15 0 a7.5 7.5 0 1 0 -15 0zM464.63 948.06 a7.5 7.5 0 1 0 15 0 a7.5 7.5 0 1 0 -15 0zM464.63 873.06 a7.5 7.5 0 1 0 15 0 a7.5 7.5 0 1 0 -15 0zM659.49 -64.44 a7.5 7.5 0 1 0 15 0 a7.5 7.5 0 1 0 -15 0zM724.44 -26.94 a7.5 7.5 0 1 0 15 0 a7.5 7.5 0 1 0 -15 0zM724.44 48.06 a7.5 7.5 0 1 0 15 0 a7.5 7.5 0 1 0 -15 0zM594.53 -26.94 a7.5 7.5 0 1 0 15 0 a7.5 7.5 0 1 0 -15 0zM789.4 85.56 a7.5 7.5 0 1 0 15 0 a7.5 7.5 0 1 0 -15 0zM789.4 160.56 a7.5 7.5 0 1 0 15 0 a7.5 7.5 0 1 0 -15 0zM724.44 198.06 a7.5 7.5 0 1 0 15 0 a7.5 7.5 0 1 0 -15 0zM724.44 273.06 a7.5 7.5 0 1 0 15 0 a7.5 7.5 0 1 0 -15 0zM659.49 310.56 a7.5 7.5 0 1 0 15 0 a7.5 7.5 0 1 0 -15 0zM789.4 310.56 a7.5 7.5 0 1 0 15 0 a7.5 7.5 0 1 0 -15 0zM789.4 385.56 a7.5 7.5 0 1 0 15 0 a7.5 7.5 0 1 0 -15 0zM724.44 423.06 a7.5 7.5 0 1 0 15 0 a7.5 7.5 0 1 0 -15 0zM659.49 385.56 a7.5 7.5 0 1 0 15 0 a7.5 7.5 0 1 0 -15 0zM724.44 498.06 a7.5 7.5 0 1 0 15 0 a7.5 7.5 0 1 0 -15 0zM789.4 535.56 a7.5 7.5 0 1 0 15 0 a7.5 7.5 0 1 0 -15 0zM789.4 610.56 a7.5 7.5 0 1 0 15 0 a7.5 7.5 0 1 0 -15 0zM724.44 648.06 a7.5 7.5 0 1 0 15 0 a7.5 7.5 0 1 0 -15 0zM659.49 610.56 a7.5 7.5 0 1 0 15 0 a7.5 7.5 0 1 0 -15 0zM659.49 535.56 a7.5 7.5 0 1 0 15 0 a7.5 7.5 0 1 0 -15 0zM724.44 948.06 a7.5 7.5 0 1 0 15 0 a7.5 7.5 0 1 0 -15 0zM789.4 985.56 a7.5 7.5 0 1 0 15 0 a7.5 7.5 0 1 0 -15 0zM789.4 1060.56 a7.5 7.5 0 1 0 15 0 a7.5 7.5 0 1 0 -15 0zM724.44 1098.06 a7.5 7.5 0 1 0 15 0 a7.5 7.5 0 1 0 -15 0zM659.49 1060.56 a7.5 7.5 0 1 0 15 0 a7.5 7.5 0 1 0 -15 0zM659.49 985.56 a7.5 7.5 0 1 0 15 0 a7.5 7.5 0 1 0 -15 0zM789.39 160.56 a7.5 7.5 0 1 0 15 0 a7.5 7.5 0 1 0 -15 0zM854.35 198.06 a7.5 7.5 0 1 0 15 0 a7.5 7.5 0 1 0 -15 0zM854.35 273.06 a7.5 7.5 0 1 0 15 0 a7.5 7.5 0 1 0 -15 0zM789.39 310.56 a7.5 7.5 0 1 0 15 0 a7.5 7.5 0 1 0 -15 0zM854.35 498.06 a7.5 7.5 0 1 0 15 0 a7.5 7.5 0 1 0 -15 0zM919.3 535.56 a7.5 7.5 0 1 0 15 0 a7.5 7.5 0 1 0 -15 0zM919.3 610.56 a7.5 7.5 0 1 0 15 0 a7.5 7.5 0 1 0 -15 0zM854.35 648.06 a7.5 7.5 0 1 0 15 0 a7.5 7.5 0 1 0 -15 0zM789.39 610.56 a7.5 7.5 0 1 0 15 0 a7.5 7.5 0 1 0 -15 0zM789.39 535.56 a7.5 7.5 0 1 0 15 0 a7.5 7.5 0 1 0 -15 0zM854.35 723.06 a7.5 7.5 0 1 0 15 0 a7.5 7.5 0 1 0 -15 0zM789.39 760.56 a7.5 7.5 0 1 0 15 0 a7.5 7.5 0 1 0 -15 0zM724.44 723.06 a7.5 7.5 0 1 0 15 0 a7.5 7.5 0 1 0 -15 0zM789.39 835.56 a7.5 7.5 0 1 0 15 0 a7.5 7.5 0 1 0 -15 0zM854.35 873.06 a7.5 7.5 0 1 0 15 0 a7.5 7.5 0 1 0 -15 0zM854.35 948.06 a7.5 7.5 0 1 0 15 0 a7.5 7.5 0 1 0 -15 0zM789.39 985.56 a7.5 7.5 0 1 0 15 0 a7.5 7.5 0 1 0 -15 0zM724.44 873.06 a7.5 7.5 0 1 0 15 0 a7.5 7.5 0 1 0 -15 0zM919.3 985.56 a7.5 7.5 0 1 0 15 0 a7.5 7.5 0 1 0 -15 0zM919.3 1060.56 a7.5 7.5 0 1 0 15 0 a7.5 7.5 0 1 0 -15 0zM854.35 1098.06 a7.5 7.5 0 1 0 15 0 a7.5 7.5 0 1 0 -15 0zM789.39 1060.56 a7.5 7.5 0 1 0 15 0 a7.5 7.5 0 1 0 -15 0zM984.26 723.06 a7.5 7.5 0 1 0 15 0 a7.5 7.5 0 1 0 -15 0zM1049.21 760.56 a7.5 7.5 0 1 0 15 0 a7.5 7.5 0 1 0 -15 0zM1049.21 835.56 a7.5 7.5 0 1 0 15 0 a7.5 7.5 0 1 0 -15 0zM984.26 873.06 a7.5 7.5 0 1 0 15 0 a7.5 7.5 0 1 0 -15 0zM919.3 835.56 a7.5 7.5 0 1 0 15 0 a7.5 7.5 0 1 0 -15 0zM919.3 760.56 a7.5 7.5 0 1 0 15 0 a7.5 7.5 0 1 0 -15 0zM984.26 948.06 a7.5 7.5 0 1 0 15 0 a7.5 7.5 0 1 0 -15 0zM1049.21 985.56 a7.5 7.5 0 1 0 15 0 a7.5 7.5 0 1 0 -15 0zM1049.21 1060.56 a7.5 7.5 0 1 0 15 0 a7.5 7.5 0 1 0 -15 0zM984.26 1098.06 a7.5 7.5 0 1 0 15 0 a7.5 7.5 0 1 0 -15 0zM1049.21 -64.44 a7.5 7.5 0 1 0 15 0 a7.5 7.5 0 1 0 -15 0zM1114.16 -26.94 a7.5 7.5 0 1 0 15 0 a7.5 7.5 0 1 0 -15 0zM1114.16 48.06 a7.5 7.5 0 1 0 15 0 a7.5 7.5 0 1 0 -15 0zM1049.21 85.56 a7.5 7.5 0 1 0 15 0 a7.5 7.5 0 1 0 -15 0zM984.26 48.06 a7.5 7.5 0 1 0 15 0 a7.5 7.5 0 1 0 -15 0zM984.26 -26.94 a7.5 7.5 0 1 0 15 0 a7.5 7.5 0 1 0 -15 0zM1179.12 85.56 a7.5 7.5 0 1 0 15 0 a7.5 7.5 0 1 0 -15 0zM1179.12 160.56 a7.5 7.5 0 1 0 15 0 a7.5 7.5 0 1 0 -15 0zM1114.16 198.06 a7.5 7.5 0 1 0 15 0 a7.5 7.5 0 1 0 -15 0zM1049.21 160.56 a7.5 7.5 0 1 0 15 0 a7.5 7.5 0 1 0 -15 0zM1114.16 273.06 a7.5 7.5 0 1 0 15 0 a7.5 7.5 0 1 0 -15 0zM1049.21 310.56 a7.5 7.5 0 1 0 15 0 a7.5 7.5 0 1 0 -15 0zM984.26 273.06 a7.5 7.5 0 1 0 15 0 a7.5 7.5 0 1 0 -15 0zM984.26 198.06 a7.5 7.5 0 1 0 15 0 a7.5 7.5 0 1 0 -15 0zM1049.21 610.56 a7.5 7.5 0 1 0 15 0 a7.5 7.5 0 1 0 -15 0zM1114.16 648.06 a7.5 7.5 0 1 0 15 0 a7.5 7.5 0 1 0 -15 0zM1114.16 723.06 a7.5 7.5 0 1 0 15 0 a7.5 7.5 0 1 0 -15 0zM984.26 648.06 a7.5 7.5 0 1 0 15 0 a7.5 7.5 0 1 0 -15 0zM1179.12 760.56 a7.5 7.5 0 1 0 15 0 a7.5 7.5 0 1 0 -15 0zM1179.12 835.56 a7.5 7.5 0 1 0 15 0 a7.5 7.5 0 1 0 -15 0zM1114.16 873.06 a7.5 7.5 0 1 0 15 0 a7.5 7.5 0 1 0 -15 0zM1179.12 -64.44 a7.5 7.5 0 1 0 15 0 a7.5 7.5 0 1 0 -15 0zM1244.07 -26.94 a7.5 7.5 0 1 0 15 0 a7.5 7.5 0 1 0 -15 0zM1244.07 48.06 a7.5 7.5 0 1 0 15 0 a7.5 7.5 0 1 0 -15 0zM1309.02 85.56 a7.5 7.5 0 1 0 15 0 a7.5 7.5 0 1 0 -15 0zM1309.02 160.56 a7.5 7.5 0 1 0 15 0 a7.5 7.5 0 1 0 -15 0zM1244.07 198.06 a7.5 7.5 0 1 0 15 0 a7.5 7.5 0 1 0 -15 0zM1244.07 273.06 a7.5 7.5 0 1 0 15 0 a7.5 7.5 0 1 0 -15 0zM1309.02 310.56 a7.5 7.5 0 1 0 15 0 a7.5 7.5 0 1 0 -15 0zM1309.02 385.56 a7.5 7.5 0 1 0 15 0 a7.5 7.5 0 1 0 -15 0zM1244.07 423.06 a7.5 7.5 0 1 0 15 0 a7.5 7.5 0 1 0 -15 0zM1179.12 385.56 a7.5 7.5 0 1 0 15 0 a7.5 7.5 0 1 0 -15 0zM1179.12 310.56 a7.5 7.5 0 1 0 15 0 a7.5 7.5 0 1 0 -15 0zM1244.07 498.06 a7.5 7.5 0 1 0 15 0 a7.5 7.5 0 1 0 -15 0zM1309.02 535.56 a7.5 7.5 0 1 0 15 0 a7.5 7.5 0 1 0 -15 0zM1309.02 610.56 a7.5 7.5 0 1 0 15 0 a7.5 7.5 0 1 0 -15 0zM1244.07 648.06 a7.5 7.5 0 1 0 15 0 a7.5 7.5 0 1 0 -15 0zM1179.12 610.56 a7.5 7.5 0 1 0 15 0 a7.5 7.5 0 1 0 -15 0zM1179.12 535.56 a7.5 7.5 0 1 0 15 0 a7.5 7.5 0 1 0 -15 0zM1244.07 723.06 a7.5 7.5 0 1 0 15 0 a7.5 7.5 0 1 0 -15 0zM1309.02 760.56 a7.5 7.5 0 1 0 15 0 a7.5 7.5 0 1 0 -15 0zM1309.02 835.56 a7.5 7.5 0 1 0 15 0 a7.5 7.5 0 1 0 -15 0zM1244.07 873.06 a7.5 7.5 0 1 0 15 0 a7.5 7.5 0 1 0 -15 0zM1244.07 948.06 a7.5 7.5 0 1 0 15 0 a7.5 7.5 0 1 0 -15 0zM1179.12 985.56 a7.5 7.5 0 1 0 15 0 a7.5 7.5 0 1 0 -15 0zM1114.16 948.06 a7.5 7.5 0 1 0 15 0 a7.5 7.5 0 1 0 -15 0zM1309.02 985.56 a7.5 7.5 0 1 0 15 0 a7.5 7.5 0 1 0 -15 0zM1309.02 1060.56 a7.5 7.5 0 1 0 15 0 a7.5 7.5 0 1 0 -15 0zM1244.07 1098.06 a7.5 7.5 0 1 0 15 0 a7.5 7.5 0 1 0 -15 0zM1179.12 1060.56 a7.5 7.5 0 1 0 15 0 a7.5 7.5 0 1 0 -15 0zM1309.03 -64.44 a7.5 7.5 0 1 0 15 0 a7.5 7.5 0 1 0 -15 0zM1373.98 -26.94 a7.5 7.5 0 1 0 15 0 a7.5 7.5 0 1 0 -15 0zM1373.98 48.06 a7.5 7.5 0 1 0 15 0 a7.5 7.5 0 1 0 -15 0zM1309.03 85.56 a7.5 7.5 0 1 0 15 0 a7.5 7.5 0 1 0 -15 0zM1438.93 85.56 a7.5 7.5 0 1 0 15 0 a7.5 7.5 0 1 0 -15 0zM1438.93 160.56 a7.5 7.5 0 1 0 15 0 a7.5 7.5 0 1 0 -15 0zM1373.98 198.06 a7.5 7.5 0 1 0 15 0 a7.5 7.5 0 1 0 -15 0zM1309.03 160.56 a7.5 7.5 0 1 0 15 0 a7.5 7.5 0 1 0 -15 0zM1309.03 385.56 a7.5 7.5 0 1 0 15 0 a7.5 7.5 0 1 0 -15 0zM1373.98 423.06 a7.5 7.5 0 1 0 15 0 a7.5 7.5 0 1 0 -15 0zM1373.98 498.06 a7.5 7.5 0 1 0 15 0 a7.5 7.5 0 1 0 -15 0zM1309.03 535.56 a7.5 7.5 0 1 0 15 0 a7.5 7.5 0 1 0 -15 0zM1438.93 535.56 a7.5 7.5 0 1 0 15 0 a7.5 7.5 0 1 0 -15 0zM1438.93 610.56 a7.5 7.5 0 1 0 15 0 a7.5 7.5 0 1 0 -15 0zM1373.98 648.06 a7.5 7.5 0 1 0 15 0 a7.5 7.5 0 1 0 -15 0zM1309.03 610.56 a7.5 7.5 0 1 0 15 0 a7.5 7.5 0 1 0 -15 0zM1373.98 723.06 a7.5 7.5 0 1 0 15 0 a7.5 7.5 0 1 0 -15 0zM1309.03 760.56 a7.5 7.5 0 1 0 15 0 a7.5 7.5 0 1 0 -15 0zM1438.93 760.56 a7.5 7.5 0 1 0 15 0 a7.5 7.5 0 1 0 -15 0zM1438.93 835.56 a7.5 7.5 0 1 0 15 0 a7.5 7.5 0 1 0 -15 0zM1373.98 873.06 a7.5 7.5 0 1 0 15 0 a7.5 7.5 0 1 0 -15 0zM1309.03 835.56 a7.5 7.5 0 1 0 15 0 a7.5 7.5 0 1 0 -15 0zM1373.98 948.06 a7.5 7.5 0 1 0 15 0 a7.5 7.5 0 1 0 -15 0zM1309.03 985.56 a7.5 7.5 0 1 0 15 0 a7.5 7.5 0 1 0 -15 0zM1503.89 48.06 a7.5 7.5 0 1 0 15 0 a7.5 7.5 0 1 0 -15 0zM1568.84 85.56 a7.5 7.5 0 1 0 15 0 a7.5 7.5 0 1 0 -15 0zM1568.84 160.56 a7.5 7.5 0 1 0 15 0 a7.5 7.5 0 1 0 -15 0zM1503.89 198.06 a7.5 7.5 0 1 0 15 0 a7.5 7.5 0 1 0 -15 0zM1438.93 385.56 a7.5 7.5 0 1 0 15 0 a7.5 7.5 0 1 0 -15 0zM1503.89 423.06 a7.5 7.5 0 1 0 15 0 a7.5 7.5 0 1 0 -15 0zM1503.89 498.06 a7.5 7.5 0 1 0 15 0 a7.5 7.5 0 1 0 -15 0zM1503.89 723.06 a7.5 7.5 0 1 0 15 0 a7.5 7.5 0 1 0 -15 0zM1568.84 760.56 a7.5 7.5 0 1 0 15 0 a7.5 7.5 0 1 0 -15 0zM1568.84 835.56 a7.5 7.5 0 1 0 15 0 a7.5 7.5 0 1 0 -15 0zM1503.89 873.06 a7.5 7.5 0 1 0 15 0 a7.5 7.5 0 1 0 -15 0zM1503.89 948.06 a7.5 7.5 0 1 0 15 0 a7.5 7.5 0 1 0 -15 0zM1438.93 985.56 a7.5 7.5 0 1 0 15 0 a7.5 7.5 0 1 0 -15 0zM1568.84 -64.44 a7.5 7.5 0 1 0 15 0 a7.5 7.5 0 1 0 -15 0zM1633.79 -26.94 a7.5 7.5 0 1 0 15 0 a7.5 7.5 0 1 0 -15 0zM1633.79 48.06 a7.5 7.5 0 1 0 15 0 a7.5 7.5 0 1 0 -15 0zM1503.89 -26.94 a7.5 7.5 0 1 0 15 0 a7.5 7.5 0 1 0 -15 0zM1633.79 498.06 a7.5 7.5 0 1 0 15 0 a7.5 7.5 0 1 0 -15 0zM1698.75 535.56 a7.5 7.5 0 1 0 15 0 a7.5 7.5 0 1 0 -15 0zM1698.75 610.56 a7.5 7.5 0 1 0 15 0 a7.5 7.5 0 1 0 -15 0zM1633.79 648.06 a7.5 7.5 0 1 0 15 0 a7.5 7.5 0 1 0 -15 0zM1568.84 610.56 a7.5 7.5 0 1 0 15 0 a7.5 7.5 0 1 0 -15 0zM1568.84 535.56 a7.5 7.5 0 1 0 15 0 a7.5 7.5 0 1 0 -15 0zM1633.79 948.06 a7.5 7.5 0 1 0 15 0 a7.5 7.5 0 1 0 -15 0zM1698.75 985.56 a7.5 7.5 0 1 0 15 0 a7.5 7.5 0 1 0 -15 0zM1698.75 1060.56 a7.5 7.5 0 1 0 15 0 a7.5 7.5 0 1 0 -15 0zM1633.79 1098.06 a7.5 7.5 0 1 0 15 0 a7.5 7.5 0 1 0 -15 0zM1568.84 1060.56 a7.5 7.5 0 1 0 15 0 a7.5 7.5 0 1 0 -15 0zM1568.84 985.56 a7.5 7.5 0 1 0 15 0 a7.5 7.5 0 1 0 -15 0z" fill="#03305d"></path><path d="M22.88 -70.84L92.16 -30.84L92.16 49.16L22.88 89.16L-46.4 49.16L-46.4 -30.84zM92.16 49.16L161.45 89.16L161.45 169.16L92.16 209.16L22.88 169.16L22.88 89.16zM92.16 289.16L161.45 329.16L161.45 409.16L92.16 449.16L22.88 409.16L22.88 329.16zM230.73 49.16L300.02 89.16L300.02 169.16L230.73 209.16L161.45 169.16L161.45 89.16zM161.45 169.16L230.73 209.16L230.73 289.16L161.45 329.16L92.16 289.16L92.16 209.16zM507.87 49.16L577.15 89.16L577.15 169.16L507.87 209.16L438.58 169.16L438.58 89.16zM507.87 289.16L577.15 329.16L577.15 409.16L507.87 449.16L438.58 409.16L438.58 329.16zM646.44 289.16L715.72 329.16L715.72 409.16L646.44 449.16L577.15 409.16L577.15 329.16zM785 289.16L854.29 329.16L854.29 409.16L785 449.16L715.72 409.16L715.72 329.16zM785 769.16L854.29 809.16L854.29 889.16L785 929.16L715.72 889.16L715.72 809.16zM715.72 889.16L785 929.16L785 1009.16L715.72 1049.16L646.44 1009.16L646.44 929.16zM854.29 169.16L923.57 209.16L923.57 289.16L854.29 329.16L785 289.16L785 209.16zM923.57 769.16L992.86 809.16L992.86 889.16L923.57 929.16L854.29 889.16L854.29 809.16zM992.86 -70.84L1062.14 -30.84L1062.14 49.16L992.86 89.16L923.57 49.16L923.57 -30.84zM1062.14 529.16L1131.42 569.16L1131.42 649.16L1062.14 689.16L992.86 649.16L992.86 569.16zM992.86 649.16L1062.14 689.16L1062.14 769.16L992.86 809.16L923.57 769.16L923.57 689.16zM1200.71 529.16L1269.99 569.16L1269.99 649.16L1200.71 689.16L1131.42 649.16L1131.42 569.16zM1339.28 289.16L1408.56 329.16L1408.56 409.16L1339.28 449.16L1269.99 409.16L1269.99 329.16zM1269.99 649.16L1339.28 689.16L1339.28 769.16L1269.99 809.16L1200.71 769.16L1200.71 689.16zM1339.28 769.16L1408.56 809.16L1408.56 889.16L1339.28 929.16L1269.99 889.16L1269.99 809.16zM1269.99 889.16L1339.28 929.16L1339.28 1009.16L1269.99 1049.16L1200.71 1009.16L1200.71 929.16zM1477.84 49.16L1547.13 89.16L1547.13 169.16L1477.84 209.16L1408.56 169.16L1408.56 89.16zM1408.56 169.16L1477.84 209.16L1477.84 289.16L1408.56 329.16L1339.28 289.16L1339.28 209.16zM1408.56 409.16L1477.84 449.16L1477.84 529.16L1408.56 569.16L1339.28 529.16L1339.28 449.16zM1408.56 649.16L1477.84 689.16L1477.84 769.16L1408.56 809.16L1339.28 769.16L1339.28 689.16zM1408.56 889.16L1477.84 929.16L1477.84 1009.16L1408.56 1049.16L1339.28 1009.16L1339.28 929.16zM1616.41 49.16L1685.7 89.16L1685.7 169.16L1616.41 209.16L1547.13 169.16L1547.13 89.16zM1547.13 409.16L1616.41 449.16L1616.41 529.16L1547.13 569.16L1477.84 529.16L1477.84 449.16z" stroke="rgba(5, 49, 95, 0.93)" stroke-width="2"></path></g><defs><mask id="SvgjsMask1002"><rect width="1600" height="1020" fill="#ffffff"></rect></mask></defs></svg>